<svg width="579" height="579" xmlns="http://www.w3.org/2000/svg" xmlns:xlink="http://www.w3.org/1999/xlink" overflow="hidden"><defs><clipPath id="clip0"><rect x="133" y="6" width="579" height="579"/></clipPath></defs><g clip-path="url(#clip0)" transform="translate(-133 -6)"><path d="M280.766 144.719C295.844 144.719 307.906 156.781 307.906 171.859L307.906 289.469C307.906 292.484 310.922 295.5 313.938 295.5 316.953 295.5 319.969 292.484 319.969 289.469L319.969 111.547C319.969 96.4688 332.031 84.4062 347.109 84.4062 362.188 84.4062 374.25 96.4688 374.25 111.547L374.25 289.469C374.25 292.484 377.266 295.5 380.281 295.5 383.297 295.5 386.312 292.484 386.312 289.469L386.312 74.7562 386.312 74.7562C386.312 60.2812 398.375 48.2188 413.453 48.2188 428.531 48.2188 440.594 60.2812 440.594 74.7562L440.594 74.7562 440.594 289.469C440.594 292.484 443.609 295.5 446.625 295.5 449.641 295.5 452.656 292.484 452.656 289.469L452.656 111.547C452.656 96.4688 464.719 84.4062 479.797 84.4062 494.875 84.4062 506.938 96.4688 506.938 111.547L506.938 289.469 506.938 358.828 531.666 247.25C535.284 230.966 551.569 220.712 567.853 224.331 584.138 227.95 594.391 244.234 590.772 260.519L554.584 423.362C552.775 429.394 549.156 435.425 543.125 440.25L476.781 491.516 476.781 536.75 301.875 536.75 301.875 506.594C301.875 463.772 253.625 460.756 253.625 379.938 253.625 376.922 253.625 171.859 253.625 171.859 253.625 156.781 265.688 144.719 280.766 144.719Z" stroke="#000000" stroke-width="6.03138" fill="#FFFF66"/></g></svg>